<?xml version="1.0" encoding="utf-8"?>
<!-- Generator: Adobe Illustrator 26.2.1, SVG Export Plug-In . SVG Version: 6.00 Build 0)  -->
<svg version="1.1" id="Outline" xmlns="http://www.w3.org/2000/svg" xmlns:xlink="http://www.w3.org/1999/xlink" x="0px" y="0px"
	 viewBox="0 0 64 64" enable-background="new 0 0 64 64" xml:space="preserve">
<path d="M0.585,40.556c0.056,0.084,0.125,0.16,0.204,0.224l19.654,15.904c0.8,0.92,1.981,1.313,3.144,1.313
	c0.691,0,1.375-0.14,1.97-0.39c1.662-0.7,2.848-2.098,3.828-3.354c2.503-3.206,4.739-6.693,6.9-10.064
	c2.189-3.415,4.431-6.899,6.962-10.106l19.235,11.651c0.161,0.098,0.34,0.145,0.518,0.145c0.299,0,0.593-0.134,0.789-0.385
	c0.312-0.398,0.276-0.968-0.083-1.325c-2.933-2.911-4.285-7.409-3.444-11.46c0.087-0.422,0.195-0.851,0.303-1.283
	c0.49-1.971,1.046-4.204-0.106-6.164c-0.276-0.469-0.638-0.878-1.063-1.225L40.058,8.481c-1.229-1.143-3.122-1.677-5.055-1.421
	c-2.858,0.376-5.189,2.131-6.9,3.617c-5.399,4.689-9.304,10.78-13.08,16.671c-1.865,2.909-3.795,5.898-5.878,8.693L7,34.314
	c-0.13-0.104-0.286-0.176-0.451-0.205c-1.928-0.347-3.758,0.07-5.018,1.142C-0.043,36.592-0.468,38.972,0.585,40.556z
	 M16.707,28.429c3.7-5.771,7.526-11.74,12.708-16.241c1.5-1.303,3.521-2.838,5.849-3.145c1.334-0.172,2.646,0.171,3.486,0.95
	l15.935,12.821c-0.034,0.004-0.068,0.003-0.102,0.007c-1.751,0.23-3.503,1.007-5.358,2.374c-0.445,0.327-0.54,0.953-0.211,1.398
	c0.326,0.443,0.952,0.539,1.398,0.211c1.575-1.161,3.025-1.815,4.432-2.001c1.041-0.137,2.273,0.043,3.144,0.667l0.07,0.056
	c0.268,0.205,0.501,0.45,0.677,0.748c0.738,1.256,0.326,2.913-0.111,4.667c-0.114,0.458-0.227,0.914-0.32,1.36
	c-0.642,3.091-0.182,6.406,1.177,9.274l-14.959-9.061c1.004-1.183,2.055-2.317,3.17-3.381c0.399-0.382,0.414-1.015,0.033-1.414
	c-0.381-0.399-1.013-0.414-1.414-0.033c-4.695,4.482-8.26,10.043-11.708,15.422c-2.137,3.333-4.346,6.779-6.792,9.913
	c-0.863,1.104-1.809,2.227-3.029,2.74c-0.694,0.294-1.613,0.328-2.289,0.004l-0.625-0.506c-0.013-0.017-0.025-0.034-0.037-0.053
	c-0.494-0.742-0.224-1.993,0.578-2.675c0.789-0.673,2.046-0.933,3.368-0.695c0.449,0.082,0.897-0.154,1.086-0.569
	c0.189-0.416,0.073-0.907-0.283-1.194L10.705,37.297C12.845,34.43,14.81,31.387,16.707,28.429z M2.828,36.774
	c0.741-0.63,1.896-0.9,3.126-0.734l17.271,13.903c-0.799,0.202-1.521,0.562-2.115,1.067c-0.763,0.65-1.256,1.544-1.441,2.473
	L2.183,39.335C1.785,38.584,2.066,37.423,2.828,36.774z"/>
<path d="M26.713,44.42l-10.485-8.44c-0.429-0.345-1.059-0.277-1.406,0.152s-0.278,1.06,0.152,1.406l10.485,8.44
	c0.185,0.148,0.406,0.221,0.626,0.221c0.292,0,0.582-0.128,0.779-0.373C27.212,45.396,27.144,44.767,26.713,44.42z"/>
<path d="M25.06,40.957c0.185,0.148,0.406,0.221,0.626,0.221c0.292,0,0.582-0.128,0.779-0.373c0.347-0.43,0.278-1.06-0.152-1.406
	l-5.735-4.616c-0.429-0.345-1.06-0.277-1.406,0.152c-0.347,0.43-0.278,1.06,0.152,1.406L25.06,40.957z"/>
<path d="M26.558,32.112c0.261,0.645,0.825,1.102,1.511,1.222l7.77,1.357c0.114,0.02,0.229,0.029,0.343,0.029
	c0.597,0,1.172-0.269,1.556-0.742l4.777-5.906c0.456-0.565,0.571-1.334,0.299-2.006l-2.952-7.315
	c-0.26-0.645-0.825-1.101-1.511-1.221l-7.77-1.357c-0.717-0.122-1.442,0.149-1.899,0.713l-4.777,5.906
	c-0.456,0.565-0.571,1.334-0.299,2.006L26.558,32.112z M30.236,18.144l-0.777-0.629L30.236,18.144l7.771,1.356l2.953,7.314
	l-4.777,5.906l-7.77-1.357l-2.952-7.314L30.236,18.144z"/>
</svg>
