<?xml version="1.0" encoding="UTF-8" standalone="no"?> <svg id="Layer_1" data-name="Layer 1" xmlns="http://www.w3.org/2000/svg" viewBox="0 0 128 128"><defs><style>.cls-1{fill:#2e79bd;}.cls-2{fill:#2d3e50;}</style></defs><title>b</title><path class="cls-1" d="M79.71793,38.11593l-10.73254-.77817L64.933,27.35357a1.02272,1.02272,0,0,0-.96775-.63972.99175.99175,0,0,0-.933.63475l-4.05452,9.98916-10.73645.77853a.99434.99434,0,0,0-.89923.69475,1.00663,1.00663,0,0,0,.317,1.1062l8.23791,6.95L53.32111,57.33312a1.019,1.019,0,0,0,.39725,1.09235.99686.99686,0,0,0,1.1346.03586l9.15525-5.69181,9.15206,5.717a1.03425,1.03425,0,0,0,1.53221-1.12785L72.11619,46.89239l8.23862-6.95031a1.013,1.013,0,0,0,.30318-1.10229A1.04591,1.04591,0,0,0,79.71793,38.11593Z"/><path class="cls-1" d="M87.81782,78.79011l-4.01411,4.288a10.90266,10.90266,0,0,1-9.59205,3.33668L68.4031,85.55l-5.54192,1.93138a10.89133,10.89133,0,0,1-10.04608-1.499l-4.742-3.46644-5.80856-.86476a10.62223,10.62223,0,0,1-3.92042-1.38371v44.7101l24.18553-16.24382a2.63337,2.63337,0,0,1,2.94033,0l24.18553,16.24382V78.1487Z"/><path class="cls-2" d="M102.30736,32.07556l-4.68622-5.589-1.552-7.1266a5.16361,5.16361,0,0,0-3.0835-3.67757l-6.74678-2.771L81.55264,7.32227A5.16354,5.16354,0,0,0,77.11328,5.499l-7.26172.68169-6.74678-2.771a5.16348,5.16348,0,0,0-4.77819.44857L52.21342,7.83655l-7.26172.68174A5.16355,5.16355,0,0,0,40.92927,11.136L37.36518,17.4996,31.25206,21.4779a5.16347,5.16347,0,0,0-2.34515,4.1872l-.19855,7.291-3.56409,6.36358a5.16355,5.16355,0,0,0-.13064,4.79741l3.21251,6.54814-.19855,7.29093a5.16354,5.16354,0,0,0,2.11379,4.30864l5.88756,4.30512L39.2414,73.118a5.16362,5.16362,0,0,0,3.874,2.83274l7.21387,1.07594,5.88756,4.30512a5.16333,5.16333,0,0,0,4.7467.708L67.85112,79.64l7.21387,1.0759a5.16344,5.16344,0,0,0,4.532-1.57905l4.98343-5.32568L91.468,71.41142a5.16349,5.16349,0,0,0,3.27906-3.50427l1.93762-7.03159,4.98343-5.32573a5.16356,5.16356,0,0,0,1.27493-4.62675L101.391,43.79645l1.93762-7.03159A5.1635,5.1635,0,0,0,102.30736,32.07556ZM64,66.30994a23.63506,23.63506,0,1,1,23.635-23.635A23.635,23.635,0,0,1,64,66.30994Z"/></svg>