<?xml version="1.0" encoding="UTF-8" standalone="no"?> <svg id="Layer_1" data-name="Layer 1" xmlns="http://www.w3.org/2000/svg" viewBox="0 0 128 128"><defs><style>.cls-1{fill:#2d3e50;}</style></defs><title>b</title><path class="cls-1" d="M123.67924,19.92872a9.30881,9.30881,0,0,0-7.51331-3.75883H102.529l1.39676-8.11766a4.13777,4.13777,0,0,0-4.07785-4.83939H28.15209a4.13777,4.13777,0,0,0-4.07785,4.83939L25.471,16.16989H11.83408A9.38821,9.38821,0,0,0,2.82344,28.19411l1.54076,5.267A39.06034,39.06034,0,0,0,35.62312,60.899,33.94488,33.94488,0,0,0,51.54939,74.4812c-.00632.18426-.0254.36219-.0254.55281a9.67121,9.67121,0,0,0,1.22,4.70846,18.26842,18.26842,0,0,0,3.22793,3.43759L45.28911,110.85321H36.37555a1.831,1.831,0,0,0-1.666,1.0713l-4.68422,10.272a1.831,1.831,0,0,0,1.666,2.59069H96.30867a1.831,1.831,0,0,0,1.666-2.59069l-4.68422-10.272a1.831,1.831,0,0,0-1.666-1.0713H82.71089L72.02809,83.18006A18.26842,18.26842,0,0,0,75.256,79.74247a9.67121,9.67121,0,0,0,1.22-4.70846c0-.19062-.01908-.36855-.0254-.55281A33.94488,33.94488,0,0,0,92.37688,60.899,39.06034,39.06034,0,0,0,123.6358,33.46112l1.54076-5.267A9.30735,9.30735,0,0,0,123.67924,19.92872ZM11.07207,31.4984l-1.54076-5.267a2.39912,2.39912,0,0,1,2.30277-3.07191H26.67365L31.108,48.93107a34.02013,34.02013,0,0,0,.93734,3.95588A32.01557,32.01557,0,0,1,11.07207,31.4984ZM67.70812,55.994h-7.454V31.03025l-3.80226,1.77807a3.26188,3.26188,0,0,1-3.11814-5.71608l9.17155-5.76731h5.20287Zm50.76057-29.7626-1.54076,5.267a32.01557,32.01557,0,0,1-20.9733,21.38855,34.02013,34.02013,0,0,0,.93734-3.95588l4.43438-25.77158h14.83957a2.39912,2.39912,0,0,1,2.30277,3.07191Z"/></svg>